<mxfile host="65bd71144e">
    <diagram id="ug38G6UqV3tzZ7y91YA-" name="第1頁">
        <mxGraphModel dx="690" dy="920" grid="1" gridSize="10" guides="1" tooltips="1" connect="1" arrows="1" fold="1" page="1" pageScale="1" pageWidth="827" pageHeight="1169" math="0" shadow="0">
            <root>
                <mxCell id="0"/>
                <mxCell id="1" parent="0"/>
                <mxCell id="2" value="" style="rounded=0;whiteSpace=wrap;html=1;" parent="1" vertex="1">
                    <mxGeometry x="50" y="70" width="200" height="650" as="geometry"/>
                </mxCell>
                <mxCell id="3" value="Execution Context Stack" style="text;html=1;strokeColor=none;fillColor=none;align=center;verticalAlign=middle;whiteSpace=wrap;rounded=0;" parent="1" vertex="1">
                    <mxGeometry x="60" y="40" width="180" height="20" as="geometry"/>
                </mxCell>
                <mxCell id="8" value="" style="group" parent="1" vertex="1" connectable="0">
                    <mxGeometry x="40.12" y="475.77000000000004" width="220" height="210" as="geometry"/>
                </mxCell>
                <mxCell id="4" value="" style="rounded=0;whiteSpace=wrap;html=1;" parent="8" vertex="1">
                    <mxGeometry x="24" y="50.88" width="171" height="159.12" as="geometry"/>
                </mxCell>
                <mxCell id="5" value="GEC(Global Execution Context)" style="text;html=1;strokeColor=none;fillColor=none;align=center;verticalAlign=middle;whiteSpace=wrap;rounded=0;" parent="8" vertex="1">
                    <mxGeometry x="-0.5" y="17" width="220" height="20.352941176470587" as="geometry"/>
                </mxCell>
                <mxCell id="10" value="" style="rounded=0;whiteSpace=wrap;html=1;" parent="8" vertex="1">
                    <mxGeometry x="36" y="57.88" width="148" height="45.12" as="geometry"/>
                </mxCell>
                <mxCell id="9" value="VO(Variable Object):GO" style="text;html=1;strokeColor=none;fillColor=none;align=center;verticalAlign=middle;whiteSpace=wrap;rounded=0;" parent="8" vertex="1">
                    <mxGeometry x="38" y="69.05842105263157" width="143" height="22.763157894736842" as="geometry"/>
                </mxCell>
                <mxCell id="11" value="" style="rounded=0;whiteSpace=wrap;html=1;" parent="8" vertex="1">
                    <mxGeometry x="36" y="111" width="148" height="82" as="geometry"/>
                </mxCell>
                <mxCell id="12" value="開始執行程式" style="text;html=1;strokeColor=none;fillColor=none;align=center;verticalAlign=middle;whiteSpace=wrap;rounded=0;" parent="8" vertex="1">
                    <mxGeometry x="66.5" y="122" width="86" height="20" as="geometry"/>
                </mxCell>
                <mxCell id="23" value="bar()" style="text;html=1;strokeColor=none;fillColor=none;align=center;verticalAlign=middle;whiteSpace=wrap;rounded=0;" parent="8" vertex="1">
                    <mxGeometry x="90" y="142" width="40" height="20" as="geometry"/>
                </mxCell>
                <mxCell id="13" value="" style="rounded=1;whiteSpace=wrap;html=1;" parent="1" vertex="1">
                    <mxGeometry x="290" y="105" width="164" height="147" as="geometry"/>
                </mxCell>
                <mxCell id="14" value="&lt;div&gt;&amp;nbsp;{&lt;/div&gt;&lt;div&gt;&amp;nbsp; &amp;nbsp;String: '類',&lt;/div&gt;&lt;div&gt;&amp;nbsp; &amp;nbsp;window: this,&lt;/div&gt;&lt;div&gt;&amp;nbsp; &amp;nbsp;message: undefined,&lt;/div&gt;&lt;div&gt;&amp;nbsp; &amp;nbsp;foo:&lt;/div&gt;&lt;div&gt;&amp;nbsp; &amp;nbsp;bar:&lt;/div&gt;&lt;div&gt;}&lt;/div&gt;" style="text;html=1;strokeColor=none;fillColor=none;align=left;verticalAlign=middle;whiteSpace=wrap;rounded=0;" parent="1" vertex="1">
                    <mxGeometry x="315" y="122" width="125" height="99" as="geometry"/>
                </mxCell>
                <mxCell id="15" value="GlobalObject" style="text;html=1;strokeColor=none;fillColor=none;align=center;verticalAlign=middle;whiteSpace=wrap;rounded=0;" parent="1" vertex="1">
                    <mxGeometry x="310" y="80" width="111" height="18" as="geometry"/>
                </mxCell>
                <mxCell id="57" style="edgeStyle=orthogonalEdgeStyle;rounded=0;orthogonalLoop=1;jettySize=auto;html=1;entryX=0.994;entryY=0.565;entryDx=0;entryDy=0;entryPerimeter=0;" edge="1" parent="1" source="20" target="55">
                    <mxGeometry relative="1" as="geometry">
                        <mxPoint x="367" y="300" as="targetPoint"/>
                        <Array as="points">
                            <mxPoint x="540" y="187"/>
                            <mxPoint x="540" y="423"/>
                        </Array>
                    </mxGeometry>
                </mxCell>
                <mxCell id="20" value="0x100&lt;br&gt;" style="text;html=1;strokeColor=none;fillColor=none;align=center;verticalAlign=middle;whiteSpace=wrap;rounded=0;" parent="1" vertex="1">
                    <mxGeometry x="347" y="177" width="40" height="20" as="geometry"/>
                </mxCell>
                <mxCell id="55" value="" style="rounded=1;whiteSpace=wrap;html=1;" vertex="1" parent="1">
                    <mxGeometry x="290" y="340" width="164" height="147" as="geometry"/>
                </mxCell>
                <mxCell id="56" value="foo函數對象:0x100" style="text;html=1;strokeColor=none;fillColor=none;align=center;verticalAlign=middle;whiteSpace=wrap;rounded=0;" vertex="1" parent="1">
                    <mxGeometry x="293.25" y="310" width="144.5" height="20" as="geometry"/>
                </mxCell>
                <mxCell id="58" value="&lt;div&gt;[parent scope]: GO&lt;/div&gt;&lt;div&gt;函數體: 程式區域&lt;/div&gt;" style="text;html=1;strokeColor=none;fillColor=none;align=left;verticalAlign=middle;whiteSpace=wrap;rounded=0;" vertex="1" parent="1">
                    <mxGeometry x="304.5" y="360" width="125" height="99" as="geometry"/>
                </mxCell>
                <mxCell id="65" style="edgeStyle=orthogonalEdgeStyle;rounded=0;orthogonalLoop=1;jettySize=auto;html=1;entryX=1;entryY=0.5;entryDx=0;entryDy=0;exitX=1;exitY=0.5;exitDx=0;exitDy=0;" edge="1" parent="1" source="59" target="60">
                    <mxGeometry relative="1" as="geometry">
                        <Array as="points">
                            <mxPoint x="474" y="200"/>
                            <mxPoint x="474" y="624"/>
                        </Array>
                    </mxGeometry>
                </mxCell>
                <mxCell id="59" value="0xb00" style="text;html=1;strokeColor=none;fillColor=none;align=center;verticalAlign=middle;whiteSpace=wrap;rounded=0;" vertex="1" parent="1">
                    <mxGeometry x="347" y="190" width="40" height="20" as="geometry"/>
                </mxCell>
                <mxCell id="60" value="" style="rounded=1;whiteSpace=wrap;html=1;" vertex="1" parent="1">
                    <mxGeometry x="290" y="550" width="164" height="147" as="geometry"/>
                </mxCell>
                <mxCell id="62" value="bar函數對象:0xb00" style="text;html=1;strokeColor=none;fillColor=none;align=center;verticalAlign=middle;whiteSpace=wrap;rounded=0;" vertex="1" parent="1">
                    <mxGeometry x="293.25" y="520" width="144.5" height="20" as="geometry"/>
                </mxCell>
                <mxCell id="63" value="函數體:程式區域" style="text;html=1;strokeColor=none;fillColor=none;align=left;verticalAlign=middle;whiteSpace=wrap;rounded=0;" vertex="1" parent="1">
                    <mxGeometry x="315" y="585" width="125" height="19" as="geometry"/>
                </mxCell>
                <mxCell id="64" value="&lt;div style=&quot;color: rgb(0, 0, 0); font-family: helvetica; font-size: 12px; font-style: normal; font-weight: 400; letter-spacing: normal; text-align: left; text-indent: 0px; text-transform: none; word-spacing: 0px; background-color: rgb(248, 249, 250);&quot;&gt;parent scope]: GO&lt;/div&gt;&lt;br class=&quot;Apple-interchange-newline&quot;&gt;" style="text;whiteSpace=wrap;html=1;" vertex="1" parent="1">
                    <mxGeometry x="315" y="560.77" width="120" height="40" as="geometry"/>
                </mxCell>
                <mxCell id="66" value="" style="rounded=0;whiteSpace=wrap;html=1;" vertex="1" parent="1">
                    <mxGeometry x="64.62" y="327.8800000000001" width="171" height="159.12" as="geometry"/>
                </mxCell>
                <mxCell id="67" value="函數執行上下文" style="text;html=1;strokeColor=none;fillColor=none;align=center;verticalAlign=middle;whiteSpace=wrap;rounded=0;" vertex="1" parent="1">
                    <mxGeometry x="70" y="300" width="144.5" height="20" as="geometry"/>
                </mxCell>
                <mxCell id="68" value="" style="rounded=0;whiteSpace=wrap;html=1;" vertex="1" parent="1">
                    <mxGeometry x="76" y="340.0000000000001" width="148" height="45.12" as="geometry"/>
                </mxCell>
                <mxCell id="69" value="VO(Variable Object):AO" style="text;html=1;strokeColor=none;fillColor=none;align=center;verticalAlign=middle;whiteSpace=wrap;rounded=0;" vertex="1" parent="1">
                    <mxGeometry x="78" y="351.1784210526316" width="143" height="22.763157894736842" as="geometry"/>
                </mxCell>
                <mxCell id="73" value="&lt;span style=&quot;color: rgb(0, 0, 0); font-family: arial, sans-serif; font-size: 14px; font-style: normal; font-weight: 400; letter-spacing: normal; text-align: left; text-indent: 0px; text-transform: none; word-spacing: 0px; background-color: rgb(248, 249, 250); display: inline; float: none;&quot;&gt;Activation Object&lt;/span&gt;" style="text;whiteSpace=wrap;html=1;" vertex="1" parent="1">
                    <mxGeometry x="580" y="70" width="130" height="30" as="geometry"/>
                </mxCell>
                <mxCell id="74" value="{&lt;br&gt;&lt;span style=&quot;white-space: pre&quot;&gt;&#9;&lt;/span&gt;message: &quot;Hello bar&quot;&lt;br&gt;}" style="rounded=1;whiteSpace=wrap;html=1;align=left;" vertex="1" parent="1">
                    <mxGeometry x="560" y="113.5" width="164" height="147" as="geometry"/>
                </mxCell>
                <mxCell id="75" value="" style="rounded=0;whiteSpace=wrap;html=1;" vertex="1" parent="1">
                    <mxGeometry x="76" y="390.94" width="148" height="89.06" as="geometry"/>
                </mxCell>
            </root>
        </mxGraphModel>
    </diagram>
</mxfile>